# xmcd
#
# Track frame offsets:
#	150
#	21766
#	44031
#	61588
#	83755
#	104244
#	121391
#	142270
#	162138
#	184977
#	203132
#	222235
#	245988
#	272015
#
# Disc length: 4025 seconds
#
# Revision: 2
# Processed by: cddbd v1.5.2PL0 Copyright (c) Steve Scherf et al.
# Submitted via: audiograbber 1.83.01
#
DISCID=d90fb70e
DTITLE=Hugues Aufray - New Yorker
DYEAR=2009
DGENRE=Variété Française
TTITLE0=Hugues Aufray - New Yorker
TTITLE1=La fille du nord Avec Eddy Mitchell
TTITLE2=N'y pense plus tout est bien Avec Carla Bruni
TTITLE3=Mr L'homme orchestre Avec Laurent Voulzy
TTITLE4=Au coeur de mon pays Avec Arno
TTITLE5=Knock knock ouvre-toi porte du ciel Avec Bernard Lavilliers
TTITLE6=L'homme dota dun nom chaque animal Avec Alain Souchon
TTITLE7=Nous serons libres Avec Peps
TTITLE8=Tout comme une vraie femme Avec Jane Birkin
TTITLE9=Tout lmonde un jour s'est plante Avec Didier Wampas
TTITLE10=Dans le souffle du vent Avec Francis Cabrel
TTITLE11=Jeune pour toujours Avec Johnny Hallyday
TTITLE12=Cloches sonnez
TTITLE13=DATA
EXTD=
EXTT0=
EXTT1=
EXTT2=
EXTT3=
EXTT4=
EXTT5=
EXTT6=
EXTT7=
EXTT8=
EXTT9=
EXTT10=
EXTT11=
EXTT12=
EXTT13=
PLAYORDER=
